<?xml version="1.0" encoding="utf-8" standalone="no"?>
<!DOCTYPE svg PUBLIC "-//W3C//DTD SVG 1.1//EN"
  "http://www.w3.org/Graphics/SVG/1.1/DTD/svg11.dtd">
<svg xmlns:xlink="http://www.w3.org/1999/xlink" width="446.4pt" height="446.4pt" viewBox="0 0 446.4 446.4" xmlns="http://www.w3.org/2000/svg" version="1.1">
 <metadata>
  <rdf:RDF xmlns:dc="http://purl.org/dc/elements/1.1/" xmlns:cc="http://creativecommons.org/ns#" xmlns:rdf="http://www.w3.org/1999/02/22-rdf-syntax-ns#">
   <cc:Work>
    <dc:type rdf:resource="http://purl.org/dc/dcmitype/StillImage"/>
    <dc:date>2026-08-29T06:03:38.256288</dc:date>
    <dc:format>image/svg+xml</dc:format>
    <dc:creator>
     <cc:Agent>
      <dc:title>Matplotlib v3.10.8, https://matplotlib.org/</dc:title>
     </cc:Agent>
    </dc:creator>
   </cc:Work>
  </rdf:RDF>
 </metadata>
 <defs>
  <style type="text/css">*{stroke-linejoin: round; stroke-linecap: butt}</style>
 </defs>
 <g id="figure_1">
  <g id="patch_1">
   
  </g>
  <g id="axes_1">
   <g id="patch_2">
    <path d="M 237.114814 143.08314 
C 229.118008 134.507616 219.882141 127.17751 209.714751 121.336904 
C 199.54736 115.496297 188.562566 111.210743 177.126141 108.622944 
C 165.689716 106.035146 153.930023 105.174147 142.23864 106.068619 
C 130.547257 106.96309 119.055408 109.602992 108.145751 113.90042 
C 97.236093 118.197849 87.031078 124.104569 77.870513 131.423898 
C 68.709949 138.743227 60.696654 147.393012 54.097457 157.085232 
C 47.49826 166.777451 42.38723 177.403318 38.934556 188.609011 
C 35.481882 199.814704 33.726316 211.47445 33.726316 223.2 
C 33.726316 234.92555 35.481882 246.585296 38.934556 257.790989 
C 42.38723 268.996682 47.49826 279.622549 54.097457 289.314768 
C 60.696654 299.006988 68.709949 307.656773 77.870513 314.976102 
C 87.031078 322.295431 97.236093 328.202151 108.145751 332.49958 
C 119.055408 336.797008 130.547257 339.43691 142.23864 340.331381 
C 153.930023 341.225853 165.689716 340.364854 177.126141 337.777056 
C 188.562566 335.189257 199.54736 330.903703 209.714751 325.063096 
C 219.882141 319.22249 229.118008 311.892384 237.114814 303.31686 
" clip-path="url(#pc951d08d52)" style="fill: none; stroke: #202124; stroke-width: 15; stroke-linejoin: miter; stroke-linecap: round"/>
   </g>
   <g id="patch_3">
    <path d="M 309.114814 143.08314 
C 301.118008 134.507616 291.882141 127.17751 281.714751 121.336904 
C 271.54736 115.496297 260.562566 111.210743 249.126141 108.622944 
C 237.689716 106.035146 225.930023 105.174147 214.23864 106.068619 
C 202.547257 106.96309 191.055408 109.602992 180.145751 113.90042 
C 169.236093 118.197849 159.031078 124.104569 149.870513 131.423898 
C 140.709949 138.743227 132.696654 147.393012 126.097457 157.085232 
C 119.49826 166.777451 114.38723 177.403318 110.934556 188.609011 
C 107.481882 199.814704 105.726316 211.47445 105.726316 223.2 
C 105.726316 234.92555 107.481882 246.585296 110.934556 257.790989 
C 114.38723 268.996682 119.49826 279.622549 126.097457 289.314768 
C 132.696654 299.006988 140.709949 307.656773 149.870513 314.976102 
C 159.031078 322.295431 169.236093 328.202151 180.145751 332.49958 
C 191.055408 336.797008 202.547257 339.43691 214.23864 340.331381 
C 225.930023 341.225853 237.689716 340.364854 249.126141 337.777056 
C 260.562566 335.189257 271.54736 330.903703 281.714751 325.063096 
C 291.882141 319.22249 301.118008 311.892384 309.114814 303.31686 
" clip-path="url(#pc951d08d52)" style="fill: none; stroke: #202124; stroke-width: 15; stroke-linejoin: miter; stroke-linecap: round"/>
   </g>
   <g id="patch_4">
    <path d="M 381.114814 143.08314 
C 373.118008 134.507616 363.882141 127.17751 353.714751 121.336904 
C 343.54736 115.496297 332.562566 111.210743 321.126141 108.622944 
C 309.689716 106.035146 297.930023 105.174147 286.23864 106.068619 
C 274.547257 106.96309 263.055408 109.602992 252.145751 113.90042 
C 241.236093 118.197849 231.031078 124.104569 221.870513 131.423898 
C 212.709949 138.743227 204.696654 147.393012 198.097457 157.085232 
C 191.49826 166.777451 186.38723 177.403318 182.934556 188.609011 
C 179.481882 199.814704 177.726316 211.47445 177.726316 223.2 
C 177.726316 234.92555 179.481882 246.585296 182.934556 257.790989 
C 186.38723 268.996682 191.49826 279.622549 198.097457 289.314768 
C 204.696654 299.006988 212.709949 307.656773 221.870513 314.976102 
C 231.031078 322.295431 241.236093 328.202151 252.145751 332.49958 
C 263.055408 336.797008 274.547257 339.43691 286.23864 340.331381 
C 297.930023 341.225853 309.689716 340.364854 321.126141 337.777056 
C 332.562566 335.189257 343.54736 330.903703 353.714751 325.063096 
C 363.882141 319.22249 373.118008 311.892384 381.114814 303.31686 
" clip-path="url(#pc951d08d52)" style="fill: none; stroke: #202124; stroke-width: 15; stroke-linejoin: miter; stroke-linecap: round"/>
   </g>
  </g>
 </g>
 <defs>
  <clipPath id="pc951d08d52">
   <rect x="7.2" y="7.2" width="432" height="432"/>
  </clipPath>
 </defs>
</svg>
